<?xml version="1.0" encoding="UTF-8" standalone="no"?>
<!-- Created with Inkscape (http://www.inkscape.org/) -->

<svg
   width="143.04585mm"
   height="51.914715mm"
   viewBox="0 0 143.04585 51.914715"
   version="1.1"
   id="svg1"
   sodipodi:docname="curve.svg"
   inkscape:version="1.3.1 (9b9bdc1480, 2023-11-25, custom)"
   xmlns:inkscape="http://www.inkscape.org/namespaces/inkscape"
   xmlns:sodipodi="http://sodipodi.sourceforge.net/DTD/sodipodi-0.dtd"
   xmlns="http://www.w3.org/2000/svg"
   xmlns:svg="http://www.w3.org/2000/svg">
  <sodipodi:namedview
     id="namedview1"
     pagecolor="#ffffff"
     bordercolor="#666666"
     borderopacity="1.0"
     inkscape:showpageshadow="2"
     inkscape:pageopacity="0.0"
     inkscape:pagecheckerboard="0"
     inkscape:deskcolor="#d1d1d1"
     inkscape:document-units="mm"
     inkscape:zoom="1.6356061"
     inkscape:cx="86.512272"
     inkscape:cy="-103.93701"
     inkscape:window-width="1920"
     inkscape:window-height="1136"
     inkscape:window-x="0"
     inkscape:window-y="27"
     inkscape:window-maximized="1"
     inkscape:current-layer="svg1" />
  <defs
     id="defs1" />
  <path
     style="fill:none;stroke:#000000;stroke-width:1;stroke-linecap:round;stroke-linejoin:miter;stroke-dasharray:none;stroke-opacity:1;paint-order:stroke markers fill"
     d="m 27.579858,2.4208361 c -0.4873,-0.0107 -0.5741,-0.4889 -0.8758,-0.7146 -0.0475,-0.0355 -0.1118,-0.0438 -0.1592,-0.0794 -0.0601,-0.0449 -0.1007,-0.112 -0.1593,-0.1587 -0.0747,-0.0597 -0.1592,-0.1059 -0.2388,-0.1588 -0.0797,-0.0529 -0.1515,-0.1201 -0.2389,-0.1588 -0.3322,-0.1473 -0.8644,-0.25180002 -1.1942,-0.31760002 -0.5237,-0.1044 -1.0576,-0.2048 -1.5924,-0.2382 -0.1854,-0.0115 -0.372,0.0132 -0.5573,0 -0.1871,-0.0133 -0.37,-0.0684 -0.5573,-0.0794 -0.5563,-0.0326 -1.1146,0 -1.6719,0 -0.5043,0 -1.0096,-0.0334 -1.5127,0 -0.4043,0.0269 -0.9805,0.1735 -1.3535,0.2382 -0.8332,0.1445 -1.2546,0.1495 -2.07,0.39700002 -0.9096,0.276 -1.7325,0.8013 -2.5478,1.2703 -0.986,0.5672 -2.0324,1.1135 -2.8662005,1.9054 -0.3127,0.297 -0.5822,0.6366 -0.8757,0.9527 -0.37,0.3984 -0.7431,0.7939 -1.1147,1.1909 -0.3715,0.397 -0.7711,0.7694 -1.1146,1.1909 -1.0953,1.3443 -1.8771,2.9348999 -2.7069,4.4459999 -0.3195,0.5816 -0.6349,1.1655 -0.9554,1.7466 -0.6061,1.0987 -0.9989,1.6827 -1.4331,2.8581 -0.7579,2.0514 -1.03899995,4.2627 -1.19429995,6.4308 -0.0785,1.0965 -0.1072,2.2355 -0.0796,3.3345 0.0234,0.9327 0.1039,2.2771 0.3185,3.1757 0.29669995,1.2427 0.78389995,2.1985 1.35339995,3.3345 1.1318,2.2572 2.4449,4.4238 3.9809,6.4308 0.3546,0.4633 0.7445,0.8986 1.1146,1.3497 0.8722,1.063 1.2247,1.5722 2.2292,2.5405 0.3789,0.3652 0.7997005,0.6841 1.1943005,1.0321 0.2955,0.2607 0.5716,0.5434 0.8758,0.7939 1.1381,0.9376 2.4251,1.7356 3.8216,2.223 0.7793,0.272 0.8927,0.2819 1.7515,0.3176 0.3182,0.0132 0.6399,0.0429 0.9554,0 0.2745,-0.0373 0.532,-0.155 0.7962,-0.2382 0.2401,-0.0756 0.4864,-0.1362 0.7165,-0.2381 0.595,-0.2637 1.0727,-0.6435 1.5924,-1.0322 0.8426,-0.6302 1.2446,-0.9235 1.9904,-1.6672 0.7547,-0.7526 1.0902,-1.2125 1.7515,-2.0642 0.3477,-0.4478 0.6836,-0.9048 1.035,-1.3497 0.8664,-1.0965 1.241,-1.431 1.9904,-2.6199 0.2908,-0.4613 0.5224,-0.9575 0.7962,-1.4291 1.6816,-2.8963 0.2093,-0.2658 2.07,-3.3345 0.3321,-0.5477 0.6294,-1.1159 0.9554,-1.6672 0.6035,-1.0204 1.2047,-1.982 1.9108,-2.9375 0.3811,-0.5158 0.798,-1.0043 1.1943,-1.5085 0.3733,-0.475 0.7449,-0.9512 1.1146,-1.4291 0.8938,-1.1553 1.1963,-1.636 2.2293,-2.6993 0.405,-0.4169 0.8555,-0.7873 1.2738,-1.1909 1.5863,-1.5308 0.808,-0.9097 2.5477,-2.3818 1.1623,-0.9834 2.3954,-1.857 3.6624,-2.6993 0.763,-0.5073 1.7397,-1.1313 2.5477,-1.5879 0.3926,-0.2218 0.7832,-0.45 1.1943,-0.6351 0.4133,-0.1862 0.8436,-0.3334 1.2738,-0.4764 0.9685,-0.3219 1.9441,-0.4686 2.9458,-0.6351 1.2696,-0.211 0.6326,-0.1588 1.9108,-0.1588 0.6691,0 1.3513,-8e-4 1.9904,0.2382 0.2222,0.0831 0.4272,0.2068 0.637,0.3176 0.2414,0.1274 0.4932,0.2397 0.7165,0.3969 0.1778,0.1252 1.049,0.9183 1.1943,1.1115 0.5478,0.7284 1.0311,2.4016 1.1146,3.2551 0.0593,0.6058 0.0244,1.2178 0,1.826 -0.0287,0.716 -0.0701,1.4327 -0.1592,2.1436 -0.2214,1.766 -0.4919,2.6611 -0.8758,4.3666 -0.2835,1.2591 -0.5557,2.448 -0.7166,3.7315 -0.0792,0.6324 -0.1061,1.2702 -0.1592,1.9054 -0.0531,0.6351 -0.1321,1.2686 -0.1592,1.9054 -0.0414,0.9702 0.0149,2.6844 0.0796,3.6521 0.1106,1.6549 0.3161,3.3495 0.8758,4.9223 0.121,0.3402 0.888,1.8609 1.035,2.1436 0.5258,1.0112 1.0532,2.0013 1.9108,2.7787 0.2946,0.2671 0.6334,0.4811 0.9554,0.7146 0.4825,0.3499 1.0604,0.7553 1.5923,1.0321 0.8268,0.4301 1.2655,0.5681 2.1496,0.8733 0.3173,0.1095 0.6263,0.2519 0.9554,0.3176 0.3394,0.0676 0.6892,0.0679 1.035,0.0793 1.3795,0.0459 2.6525,-0.0825 3.9809,-0.4763 1.1579,-0.3433 2.0234,-0.6645 3.0255,-1.3497 0.482,-0.3295 0.899,-0.7444 1.353,-1.1115 1.523,-1.2308 1.725,-1.2863 3.105,-2.6993 0.525,-0.5367 1.001,-1.119 1.513,-1.6673 0.576,-0.6162 1.189,-1.1979 1.752,-1.826 0.552,-0.6164 1.06,-1.2713 1.592,-1.9054 0.556,-0.6627 1.113,-1.3242 1.672,-1.9848 1.795,-2.1225 3.625,-4.2143 5.493,-6.272 0.118,-0.1294 3.827,-4.1334 3.902,-4.2078 0.759,-0.7572 3.585002,-3.2773 4.379002,-3.9697 0.832,-0.7264 3.563,-3.0577 4.458,-3.7314 1.293,-0.9727 3.325,-2.2471 4.697,-3.0963 0.739,-0.4572 1.463,-0.9418 2.23,-1.3497 3.23,-1.7178 6.875,-2.9017 10.509,-3.3345 1.942,-0.2312 3.226,-0.1916 5.175,0 1.012,0.0995 2.026,0.2109 3.026,0.397 1.322,0.2462 4.056,1.0017 5.413,1.429 0.697,0.2193 1.375,0.4932 2.071,0.7146 1.128,0.3592 2.284,0.6283 3.423,0.9527"
     id="path1" />
</svg>
